<mxfile host="app.diagrams.net" agent="Mozilla/5.0 (X11; Linux x86_64; rv:132.0) Gecko/20100101 Firefox/132.0" version="25.0.1" pages="4">
  <diagram name="Menu" id="O4eq5Uj5J8jwXY88ldXL">
    <mxGraphModel dx="4568" dy="1672" grid="1" gridSize="10" guides="1" tooltips="1" connect="1" arrows="1" fold="1" page="1" pageScale="1" pageWidth="850" pageHeight="1100" math="0" shadow="0">
      <root>
        <mxCell id="0" />
        <mxCell id="1" parent="0" />
        <mxCell id="PH6FUnhSjzCH8QiEZzul-5" value="" style="edgeStyle=orthogonalEdgeStyle;rounded=0;orthogonalLoop=1;jettySize=auto;html=1;" parent="1" source="PH6FUnhSjzCH8QiEZzul-1" target="PH6FUnhSjzCH8QiEZzul-2" edge="1">
          <mxGeometry relative="1" as="geometry" />
        </mxCell>
        <mxCell id="PH6FUnhSjzCH8QiEZzul-1" value="Start" style="ellipse;whiteSpace=wrap;html=1;fontFamily=Times New Roman;fontSize=15;" parent="1" vertex="1">
          <mxGeometry x="320" y="100" width="120" height="80" as="geometry" />
        </mxCell>
        <mxCell id="PH6FUnhSjzCH8QiEZzul-6" style="edgeStyle=orthogonalEdgeStyle;rounded=0;orthogonalLoop=1;jettySize=auto;html=1;" parent="1" source="PH6FUnhSjzCH8QiEZzul-2" target="PH6FUnhSjzCH8QiEZzul-3" edge="1">
          <mxGeometry relative="1" as="geometry" />
        </mxCell>
        <mxCell id="PH6FUnhSjzCH8QiEZzul-2" value="Int n, a, b&lt;div&gt;char confilm&lt;/div&gt;" style="shape=parallelogram;perimeter=parallelogramPerimeter;whiteSpace=wrap;html=1;fixedSize=1;fontFamily=Times New Roman;" parent="1" vertex="1">
          <mxGeometry x="295" y="290" width="170" height="60" as="geometry" />
        </mxCell>
        <mxCell id="PH6FUnhSjzCH8QiEZzul-7" style="edgeStyle=orthogonalEdgeStyle;rounded=0;orthogonalLoop=1;jettySize=auto;html=1;entryX=0.5;entryY=0;entryDx=0;entryDy=0;" parent="1" source="PH6FUnhSjzCH8QiEZzul-3" target="PH6FUnhSjzCH8QiEZzul-4" edge="1">
          <mxGeometry relative="1" as="geometry" />
        </mxCell>
        <mxCell id="PH6FUnhSjzCH8QiEZzul-3" value="Input n" style="shape=parallelogram;perimeter=parallelogramPerimeter;whiteSpace=wrap;html=1;fixedSize=1;fontFamily=Times New Roman;" parent="1" vertex="1">
          <mxGeometry x="295" y="500" width="170" height="60" as="geometry" />
        </mxCell>
        <mxCell id="PH6FUnhSjzCH8QiEZzul-9" style="edgeStyle=orthogonalEdgeStyle;rounded=0;orthogonalLoop=1;jettySize=auto;html=1;" parent="1" source="PH6FUnhSjzCH8QiEZzul-4" target="PH6FUnhSjzCH8QiEZzul-8" edge="1">
          <mxGeometry relative="1" as="geometry" />
        </mxCell>
        <mxCell id="PH6FUnhSjzCH8QiEZzul-11" style="edgeStyle=orthogonalEdgeStyle;rounded=0;orthogonalLoop=1;jettySize=auto;html=1;verticalAlign=middle;" parent="1" source="PH6FUnhSjzCH8QiEZzul-4" edge="1">
          <mxGeometry relative="1" as="geometry">
            <mxPoint x="380" y="440" as="targetPoint" />
            <Array as="points">
              <mxPoint x="191" y="750" />
            </Array>
          </mxGeometry>
        </mxCell>
        <mxCell id="PH6FUnhSjzCH8QiEZzul-4" value="n &amp;gt; 0 &amp;amp;&amp;amp; n &amp;lt;=2" style="rhombus;whiteSpace=wrap;html=1;fontFamily=Times New Roman;" parent="1" vertex="1">
          <mxGeometry x="315" y="710" width="130" height="80" as="geometry" />
        </mxCell>
        <mxCell id="PH6FUnhSjzCH8QiEZzul-19" style="edgeStyle=orthogonalEdgeStyle;rounded=0;orthogonalLoop=1;jettySize=auto;html=1;" parent="1" source="PH6FUnhSjzCH8QiEZzul-8" target="PH6FUnhSjzCH8QiEZzul-17" edge="1">
          <mxGeometry relative="1" as="geometry" />
        </mxCell>
        <mxCell id="PH6FUnhSjzCH8QiEZzul-20" style="edgeStyle=orthogonalEdgeStyle;rounded=0;orthogonalLoop=1;jettySize=auto;html=1;entryX=0.5;entryY=0;entryDx=0;entryDy=0;" parent="1" source="PH6FUnhSjzCH8QiEZzul-8" target="PH6FUnhSjzCH8QiEZzul-18" edge="1">
          <mxGeometry relative="1" as="geometry" />
        </mxCell>
        <mxCell id="PH6FUnhSjzCH8QiEZzul-8" value="" style="ellipse;whiteSpace=wrap;html=1;aspect=fixed;" parent="1" vertex="1">
          <mxGeometry x="340" y="920" width="80" height="80" as="geometry" />
        </mxCell>
        <mxCell id="PH6FUnhSjzCH8QiEZzul-15" value="True" style="text;html=1;align=center;verticalAlign=middle;whiteSpace=wrap;rounded=0;fontFamily=Times New Roman;fontSize=14;" parent="1" vertex="1">
          <mxGeometry x="390" y="880" width="60" height="30" as="geometry" />
        </mxCell>
        <mxCell id="PH6FUnhSjzCH8QiEZzul-16" value="False" style="text;html=1;align=center;verticalAlign=middle;whiteSpace=wrap;rounded=0;fontFamily=Times New Roman;fontSize=14;" parent="1" vertex="1">
          <mxGeometry x="130" y="610" width="60" height="30" as="geometry" />
        </mxCell>
        <mxCell id="PH6FUnhSjzCH8QiEZzul-24" style="edgeStyle=orthogonalEdgeStyle;rounded=0;orthogonalLoop=1;jettySize=auto;html=1;" parent="1" source="PH6FUnhSjzCH8QiEZzul-17" target="PH6FUnhSjzCH8QiEZzul-21" edge="1">
          <mxGeometry relative="1" as="geometry" />
        </mxCell>
        <mxCell id="PH6FUnhSjzCH8QiEZzul-17" value="n = 1" style="rhombus;whiteSpace=wrap;html=1;fontFamily=Times New Roman;" parent="1" vertex="1">
          <mxGeometry x="12.5" y="1080" width="130" height="80" as="geometry" />
        </mxCell>
        <mxCell id="PH6FUnhSjzCH8QiEZzul-25" style="edgeStyle=orthogonalEdgeStyle;rounded=0;orthogonalLoop=1;jettySize=auto;html=1;" parent="1" source="PH6FUnhSjzCH8QiEZzul-18" target="PH6FUnhSjzCH8QiEZzul-22" edge="1">
          <mxGeometry relative="1" as="geometry" />
        </mxCell>
        <mxCell id="PH6FUnhSjzCH8QiEZzul-18" value="n = 2" style="rhombus;whiteSpace=wrap;html=1;fontFamily=Times New Roman;" parent="1" vertex="1">
          <mxGeometry x="612.5" y="1080" width="130" height="80" as="geometry" />
        </mxCell>
        <mxCell id="PH6FUnhSjzCH8QiEZzul-21" value="&lt;span class=&quot;fontstyle01&quot;&gt;&lt;span style=&quot;font-size:11.0pt;line-height:103%;mso-fareast-font-family:&amp;quot;Times New Roman&amp;quot;;&lt;br/&gt;mso-bidi-font-family:&amp;quot;Times New Roman&amp;quot;;mso-ansi-language:EN-US;mso-fareast-language:&lt;br/&gt;EN-US;mso-bidi-language:AR-SA&quot; lang=&quot;EN-US&quot;&gt;Employee information management&lt;/span&gt;&lt;/span&gt;" style="shape=rectangle&#xa;;whiteSpace=wrap;html=1;backgroundOutline=1;darkOpacity=0.05;direction=south;fontFamily=Times New Roman;" parent="1" vertex="1">
          <mxGeometry y="1370" width="155" height="80" as="geometry" />
        </mxCell>
        <mxCell id="PH6FUnhSjzCH8QiEZzul-22" value="&lt;p style=&quot;margin-bottom: 0cm; line-height: 115%; border: medium; font-size: 14px;&quot; class=&quot;MsoListParagraph&quot;&gt;&lt;span style=&quot;font-size: 14px;&quot; class=&quot;fontstyle01&quot;&gt;&lt;span style=&quot;font-family: Symbol; font-size: 14px;&quot; lang=&quot;EN-US&quot;&gt;&lt;span style=&quot;font-size: 14px;&quot;&gt;&lt;span style=&quot;font: 14px &amp;quot;Times New Roman&amp;quot;;&quot;&gt;&amp;nbsp;&amp;nbsp;&amp;nbsp;&lt;br style=&quot;font-size: 14px;&quot;&gt;&lt;/span&gt;&lt;/span&gt;&lt;/span&gt;&lt;/span&gt;&lt;span style=&quot;font-size: 14px;&quot; class=&quot;fontstyle01&quot;&gt;&lt;span style=&quot;font-size: 14px;&quot; lang=&quot;EN-US&quot;&gt;Function&lt;/span&gt;&lt;/span&gt;&lt;/p&gt;&lt;br style=&quot;font-size: 14px;&quot;&gt;&lt;div style=&quot;font-size: 14px;&quot;&gt;&lt;br style=&quot;font-size: 14px;&quot;&gt;&lt;/div&gt;" style="shape=rectangle&#xa;;whiteSpace=wrap;html=1;backgroundOutline=1;darkOpacity=0.05;direction=south;fontFamily=Times New Roman;fontSize=14;" parent="1" vertex="1">
          <mxGeometry x="600" y="1370" width="155" height="80" as="geometry" />
        </mxCell>
        <mxCell id="PH6FUnhSjzCH8QiEZzul-35" style="edgeStyle=orthogonalEdgeStyle;rounded=0;orthogonalLoop=1;jettySize=auto;html=1;entryX=0.5;entryY=0;entryDx=0;entryDy=0;exitX=1;exitY=0.5;exitDx=0;exitDy=0;" parent="1" source="PH6FUnhSjzCH8QiEZzul-21" target="PH6FUnhSjzCH8QiEZzul-33" edge="1">
          <mxGeometry relative="1" as="geometry">
            <Array as="points">
              <mxPoint x="78" y="1760" />
              <mxPoint x="78" y="1760" />
            </Array>
            <mxPoint x="338" y="1730" as="sourcePoint" />
          </mxGeometry>
        </mxCell>
        <mxCell id="PH6FUnhSjzCH8QiEZzul-37" style="edgeStyle=orthogonalEdgeStyle;rounded=0;orthogonalLoop=1;jettySize=auto;html=1;exitX=1;exitY=0.5;exitDx=0;exitDy=0;entryX=0.5;entryY=0;entryDx=0;entryDy=0;" parent="1" source="PH6FUnhSjzCH8QiEZzul-22" target="PH6FUnhSjzCH8QiEZzul-34" edge="1">
          <mxGeometry relative="1" as="geometry">
            <Array as="points">
              <mxPoint x="678" y="1640" />
              <mxPoint x="678" y="1640" />
            </Array>
            <mxPoint x="422.5" y="1730" as="sourcePoint" />
          </mxGeometry>
        </mxCell>
        <mxCell id="PH6FUnhSjzCH8QiEZzul-39" style="edgeStyle=orthogonalEdgeStyle;rounded=0;orthogonalLoop=1;jettySize=auto;html=1;entryX=1;entryY=0.5;entryDx=0;entryDy=0;" parent="1" source="PH6FUnhSjzCH8QiEZzul-33" target="PH6FUnhSjzCH8QiEZzul-38" edge="1">
          <mxGeometry relative="1" as="geometry" />
        </mxCell>
        <mxCell id="PH6FUnhSjzCH8QiEZzul-33" value="Input a" style="shape=parallelogram;perimeter=parallelogramPerimeter;whiteSpace=wrap;html=1;fixedSize=1;fontFamily=Times New Roman;" parent="1" vertex="1">
          <mxGeometry x="-7.5" y="2060" width="170" height="60" as="geometry" />
        </mxCell>
        <mxCell id="PH6FUnhSjzCH8QiEZzul-34" value="Input b" style="shape=parallelogram;perimeter=parallelogramPerimeter;whiteSpace=wrap;html=1;fixedSize=1;fontFamily=Times New Roman;" parent="1" vertex="1">
          <mxGeometry x="592.5" y="2060" width="170" height="60" as="geometry" />
        </mxCell>
        <mxCell id="PH6FUnhSjzCH8QiEZzul-40" style="edgeStyle=orthogonalEdgeStyle;rounded=0;orthogonalLoop=1;jettySize=auto;html=1;exitX=0.5;exitY=0;exitDx=0;exitDy=0;" parent="1" source="PH6FUnhSjzCH8QiEZzul-38" edge="1">
          <mxGeometry relative="1" as="geometry">
            <mxPoint x="80" y="1950" as="targetPoint" />
            <Array as="points">
              <mxPoint x="-235" y="1950" />
            </Array>
          </mxGeometry>
        </mxCell>
        <mxCell id="PH6FUnhSjzCH8QiEZzul-41" style="edgeStyle=orthogonalEdgeStyle;rounded=0;orthogonalLoop=1;jettySize=auto;html=1;" parent="1" source="PH6FUnhSjzCH8QiEZzul-38" target="PH6FUnhSjzCH8QiEZzul-42" edge="1">
          <mxGeometry relative="1" as="geometry">
            <mxPoint x="-490" y="2270" as="targetPoint" />
          </mxGeometry>
        </mxCell>
        <mxCell id="PH6FUnhSjzCH8QiEZzul-38" value="a &amp;gt; 0 &amp;amp;&amp;amp; a &amp;lt;=5" style="rhombus;whiteSpace=wrap;html=1;fontFamily=Times New Roman;" parent="1" vertex="1">
          <mxGeometry x="-300" y="2050" width="130" height="80" as="geometry" />
        </mxCell>
        <mxCell id="PH6FUnhSjzCH8QiEZzul-47" style="edgeStyle=orthogonalEdgeStyle;rounded=0;orthogonalLoop=1;jettySize=auto;html=1;entryX=0.5;entryY=0;entryDx=0;entryDy=0;" parent="1" source="PH6FUnhSjzCH8QiEZzul-42" target="PH6FUnhSjzCH8QiEZzul-46" edge="1">
          <mxGeometry relative="1" as="geometry" />
        </mxCell>
        <mxCell id="PH6FUnhSjzCH8QiEZzul-52" style="edgeStyle=orthogonalEdgeStyle;rounded=0;orthogonalLoop=1;jettySize=auto;html=1;exitX=0;exitY=1;exitDx=0;exitDy=0;entryX=0.5;entryY=0;entryDx=0;entryDy=0;" parent="1" source="PH6FUnhSjzCH8QiEZzul-42" target="PH6FUnhSjzCH8QiEZzul-49" edge="1">
          <mxGeometry relative="1" as="geometry" />
        </mxCell>
        <mxCell id="PH6FUnhSjzCH8QiEZzul-54" style="edgeStyle=orthogonalEdgeStyle;rounded=0;orthogonalLoop=1;jettySize=auto;html=1;" parent="1" source="PH6FUnhSjzCH8QiEZzul-42" target="PH6FUnhSjzCH8QiEZzul-53" edge="1">
          <mxGeometry relative="1" as="geometry" />
        </mxCell>
        <mxCell id="PH6FUnhSjzCH8QiEZzul-58" style="edgeStyle=orthogonalEdgeStyle;rounded=0;orthogonalLoop=1;jettySize=auto;html=1;exitX=1;exitY=1;exitDx=0;exitDy=0;entryX=0.5;entryY=0;entryDx=0;entryDy=0;" parent="1" source="PH6FUnhSjzCH8QiEZzul-42" target="PH6FUnhSjzCH8QiEZzul-57" edge="1">
          <mxGeometry relative="1" as="geometry" />
        </mxCell>
        <mxCell id="PH6FUnhSjzCH8QiEZzul-64" style="edgeStyle=orthogonalEdgeStyle;rounded=0;orthogonalLoop=1;jettySize=auto;html=1;" parent="1" source="PH6FUnhSjzCH8QiEZzul-42" target="PH6FUnhSjzCH8QiEZzul-61" edge="1">
          <mxGeometry relative="1" as="geometry" />
        </mxCell>
        <mxCell id="PH6FUnhSjzCH8QiEZzul-42" value="" style="ellipse;whiteSpace=wrap;html=1;aspect=fixed;" parent="1" vertex="1">
          <mxGeometry x="-530" y="2230" width="80" height="80" as="geometry" />
        </mxCell>
        <mxCell id="PH6FUnhSjzCH8QiEZzul-43" value="True" style="text;html=1;align=center;verticalAlign=middle;whiteSpace=wrap;rounded=0;fontFamily=Times New Roman;fontSize=14;" parent="1" vertex="1">
          <mxGeometry x="-480" y="2050" width="60" height="30" as="geometry" />
        </mxCell>
        <mxCell id="PH6FUnhSjzCH8QiEZzul-44" value="False" style="text;html=1;align=center;verticalAlign=middle;whiteSpace=wrap;rounded=0;fontFamily=Times New Roman;fontSize=14;" parent="1" vertex="1">
          <mxGeometry x="-120" y="1910" width="60" height="30" as="geometry" />
        </mxCell>
        <mxCell id="LwyQZr5xyhnIRN00urlC-2" style="edgeStyle=orthogonalEdgeStyle;rounded=0;orthogonalLoop=1;jettySize=auto;html=1;entryX=0;entryY=0.5;entryDx=0;entryDy=0;" edge="1" parent="1" source="PH6FUnhSjzCH8QiEZzul-45" target="LwyQZr5xyhnIRN00urlC-1">
          <mxGeometry relative="1" as="geometry">
            <Array as="points">
              <mxPoint x="-1042" y="3250" />
            </Array>
          </mxGeometry>
        </mxCell>
        <mxCell id="PH6FUnhSjzCH8QiEZzul-45" value="&lt;span class=&quot;fontstyle01&quot;&gt;&lt;span style=&quot;font-size:11.0pt;line-height:103%;mso-fareast-font-family:&amp;quot;Times New Roman&amp;quot;;&lt;br/&gt;mso-bidi-font-family:&amp;quot;Times New Roman&amp;quot;;mso-ansi-language:EN-US;mso-fareast-language:&lt;br/&gt;EN-US;mso-bidi-language:AR-SA&quot; lang=&quot;EN-US&quot;&gt;Show all employees&lt;/span&gt;&lt;/span&gt;" style="shape=rectangle;whiteSpace=wrap;html=1;backgroundOutline=1;darkOpacity=0.05;direction=south;fontFamily=Times New Roman;" parent="1" vertex="1">
          <mxGeometry x="-1120" y="2680" width="155" height="80" as="geometry" />
        </mxCell>
        <mxCell id="PH6FUnhSjzCH8QiEZzul-48" style="edgeStyle=orthogonalEdgeStyle;rounded=0;orthogonalLoop=1;jettySize=auto;html=1;" parent="1" source="PH6FUnhSjzCH8QiEZzul-46" target="PH6FUnhSjzCH8QiEZzul-45" edge="1">
          <mxGeometry relative="1" as="geometry" />
        </mxCell>
        <mxCell id="PH6FUnhSjzCH8QiEZzul-46" value="a = 1" style="rhombus;whiteSpace=wrap;html=1;fontFamily=Times New Roman;" parent="1" vertex="1">
          <mxGeometry x="-1107.5" y="2380" width="130" height="80" as="geometry" />
        </mxCell>
        <mxCell id="PH6FUnhSjzCH8QiEZzul-51" style="edgeStyle=orthogonalEdgeStyle;rounded=0;orthogonalLoop=1;jettySize=auto;html=1;" parent="1" source="PH6FUnhSjzCH8QiEZzul-49" target="PH6FUnhSjzCH8QiEZzul-50" edge="1">
          <mxGeometry relative="1" as="geometry" />
        </mxCell>
        <mxCell id="PH6FUnhSjzCH8QiEZzul-49" value="a = 2" style="rhombus;whiteSpace=wrap;html=1;fontFamily=Times New Roman;" parent="1" vertex="1">
          <mxGeometry x="-840" y="2380" width="130" height="80" as="geometry" />
        </mxCell>
        <mxCell id="PH6FUnhSjzCH8QiEZzul-50" value="&lt;span class=&quot;fontstyle01&quot;&gt;&lt;span style=&quot;font-size:11.0pt;line-height:103%;mso-fareast-font-family:&amp;quot;Times New Roman&amp;quot;;&lt;br/&gt;mso-bidi-font-family:&amp;quot;Times New Roman&amp;quot;;mso-ansi-language:EN-US;mso-fareast-language:&lt;br/&gt;EN-US;mso-bidi-language:AR-SA&quot; lang=&quot;EN-US&quot;&gt;Add a new employee&lt;/span&gt;&lt;/span&gt;" style="shape=rectangle;whiteSpace=wrap;html=1;backgroundOutline=1;darkOpacity=0.05;direction=south;fontFamily=Times New Roman;" parent="1" vertex="1">
          <mxGeometry x="-852.5" y="2680" width="155" height="80" as="geometry" />
        </mxCell>
        <mxCell id="PH6FUnhSjzCH8QiEZzul-53" value="a = 3" style="rhombus;whiteSpace=wrap;html=1;fontFamily=Times New Roman;" parent="1" vertex="1">
          <mxGeometry x="-555" y="2380" width="130" height="80" as="geometry" />
        </mxCell>
        <mxCell id="LwyQZr5xyhnIRN00urlC-5" style="edgeStyle=orthogonalEdgeStyle;rounded=0;orthogonalLoop=1;jettySize=auto;html=1;" edge="1" parent="1" source="PH6FUnhSjzCH8QiEZzul-55" target="LwyQZr5xyhnIRN00urlC-1">
          <mxGeometry relative="1" as="geometry" />
        </mxCell>
        <mxCell id="PH6FUnhSjzCH8QiEZzul-55" value="&lt;span class=&quot;fontstyle01&quot;&gt;&lt;span style=&quot;font-size:11.0pt;line-height:103%;mso-fareast-font-family:&amp;quot;Times New Roman&amp;quot;;&lt;br/&gt;mso-bidi-font-family:&amp;quot;Times New Roman&amp;quot;;mso-ansi-language:EN-US;mso-fareast-language:&lt;br/&gt;EN-US;mso-bidi-language:AR-SA&quot; lang=&quot;EN-US&quot;&gt;Update/Modify employee information based on the&lt;br/&gt;employee code&lt;/span&gt;&lt;/span&gt;" style="shape=rectangle;whiteSpace=wrap;html=1;backgroundOutline=1;darkOpacity=0.05;direction=south;fontFamily=Times New Roman;" parent="1" vertex="1">
          <mxGeometry x="-567.5" y="2680" width="155" height="80" as="geometry" />
        </mxCell>
        <mxCell id="PH6FUnhSjzCH8QiEZzul-56" style="edgeStyle=orthogonalEdgeStyle;rounded=0;orthogonalLoop=1;jettySize=auto;html=1;entryX=0;entryY=0.5;entryDx=0;entryDy=0;entryPerimeter=0;" parent="1" source="PH6FUnhSjzCH8QiEZzul-53" target="PH6FUnhSjzCH8QiEZzul-55" edge="1">
          <mxGeometry relative="1" as="geometry" />
        </mxCell>
        <mxCell id="PH6FUnhSjzCH8QiEZzul-57" value="a = 4" style="rhombus;whiteSpace=wrap;html=1;fontFamily=Times New Roman;" parent="1" vertex="1">
          <mxGeometry x="-300" y="2380" width="130" height="80" as="geometry" />
        </mxCell>
        <mxCell id="PH6FUnhSjzCH8QiEZzul-59" value="&lt;span style=&quot;font-size:11.0pt;line-height:&lt;br/&gt;103%;font-family:&amp;quot;Times New Roman&amp;quot;,serif;mso-fareast-font-family:&amp;quot;Times New Roman&amp;quot;;&lt;br/&gt;color:black;mso-ansi-language:EN-US;mso-fareast-language:EN-US;mso-bidi-language:&lt;br/&gt;AR-SA&quot; lang=&quot;EN-US&quot;&gt;Delete an employee by employee code&lt;/span&gt;" style="shape=rectangle;whiteSpace=wrap;html=1;backgroundOutline=1;darkOpacity=0.05;direction=south;fontFamily=Times New Roman;" parent="1" vertex="1">
          <mxGeometry x="-312.5" y="2680" width="155" height="80" as="geometry" />
        </mxCell>
        <mxCell id="PH6FUnhSjzCH8QiEZzul-60" style="edgeStyle=orthogonalEdgeStyle;rounded=0;orthogonalLoop=1;jettySize=auto;html=1;entryX=0;entryY=0.5;entryDx=0;entryDy=0;entryPerimeter=0;" parent="1" source="PH6FUnhSjzCH8QiEZzul-57" target="PH6FUnhSjzCH8QiEZzul-59" edge="1">
          <mxGeometry relative="1" as="geometry" />
        </mxCell>
        <mxCell id="PH6FUnhSjzCH8QiEZzul-61" value="a = 5" style="rhombus;whiteSpace=wrap;html=1;fontFamily=Times New Roman;" parent="1" vertex="1">
          <mxGeometry x="-40" y="2380" width="130" height="80" as="geometry" />
        </mxCell>
        <mxCell id="LwyQZr5xyhnIRN00urlC-7" style="edgeStyle=orthogonalEdgeStyle;rounded=0;orthogonalLoop=1;jettySize=auto;html=1;entryX=1;entryY=0.5;entryDx=0;entryDy=0;" edge="1" parent="1" source="PH6FUnhSjzCH8QiEZzul-62" target="LwyQZr5xyhnIRN00urlC-1">
          <mxGeometry relative="1" as="geometry">
            <Array as="points">
              <mxPoint x="30" y="3250" />
            </Array>
          </mxGeometry>
        </mxCell>
        <mxCell id="PH6FUnhSjzCH8QiEZzul-62" value="&lt;span class=&quot;fontstyle01&quot;&gt;&lt;span style=&quot;font-size:11.0pt;line-height:103%;mso-fareast-font-family:&amp;quot;Times New Roman&amp;quot;;&lt;br/&gt;mso-bidi-font-family:&amp;quot;Times New Roman&amp;quot;;mso-ansi-language:EN-US;mso-fareast-language:&lt;br/&gt;EN-US;mso-bidi-language:AR-SA&quot; lang=&quot;EN-US&quot;&gt;View employee by employee code&lt;/span&gt;&lt;/span&gt;" style="shape=rectangle;whiteSpace=wrap;html=1;backgroundOutline=1;darkOpacity=0.05;direction=south;fontFamily=Times New Roman;" parent="1" vertex="1">
          <mxGeometry x="-52.5" y="2680" width="155" height="80" as="geometry" />
        </mxCell>
        <mxCell id="PH6FUnhSjzCH8QiEZzul-63" style="edgeStyle=orthogonalEdgeStyle;rounded=0;orthogonalLoop=1;jettySize=auto;html=1;entryX=0;entryY=0.5;entryDx=0;entryDy=0;entryPerimeter=0;" parent="1" source="PH6FUnhSjzCH8QiEZzul-61" target="PH6FUnhSjzCH8QiEZzul-62" edge="1">
          <mxGeometry relative="1" as="geometry" />
        </mxCell>
        <mxCell id="PH6FUnhSjzCH8QiEZzul-67" style="edgeStyle=orthogonalEdgeStyle;rounded=0;orthogonalLoop=1;jettySize=auto;html=1;exitX=0.5;exitY=0;exitDx=0;exitDy=0;" parent="1" source="PH6FUnhSjzCH8QiEZzul-65" edge="1">
          <mxGeometry relative="1" as="geometry">
            <mxPoint x="680" y="1920" as="targetPoint" />
            <Array as="points">
              <mxPoint x="1055" y="1920" />
              <mxPoint x="680" y="1920" />
            </Array>
          </mxGeometry>
        </mxCell>
        <mxCell id="PH6FUnhSjzCH8QiEZzul-72" style="edgeStyle=orthogonalEdgeStyle;rounded=0;orthogonalLoop=1;jettySize=auto;html=1;" parent="1" source="PH6FUnhSjzCH8QiEZzul-65" target="PH6FUnhSjzCH8QiEZzul-73" edge="1">
          <mxGeometry relative="1" as="geometry">
            <mxPoint x="1340" y="2240" as="targetPoint" />
          </mxGeometry>
        </mxCell>
        <mxCell id="PH6FUnhSjzCH8QiEZzul-65" value="b &amp;gt; 0 &amp;amp;&amp;amp; b &amp;lt;=5" style="rhombus;whiteSpace=wrap;html=1;fontFamily=Times New Roman;" parent="1" vertex="1">
          <mxGeometry x="990" y="2050" width="130" height="80" as="geometry" />
        </mxCell>
        <mxCell id="PH6FUnhSjzCH8QiEZzul-66" style="edgeStyle=orthogonalEdgeStyle;rounded=0;orthogonalLoop=1;jettySize=auto;html=1;entryX=0.064;entryY=0.509;entryDx=0;entryDy=0;entryPerimeter=0;" parent="1" source="PH6FUnhSjzCH8QiEZzul-34" target="PH6FUnhSjzCH8QiEZzul-65" edge="1">
          <mxGeometry relative="1" as="geometry" />
        </mxCell>
        <mxCell id="PH6FUnhSjzCH8QiEZzul-68" value="False" style="text;html=1;align=center;verticalAlign=middle;whiteSpace=wrap;rounded=0;fontFamily=Times New Roman;fontSize=14;" parent="1" vertex="1">
          <mxGeometry x="820" y="1890" width="60" height="30" as="geometry" />
        </mxCell>
        <mxCell id="PH6FUnhSjzCH8QiEZzul-70" value="True" style="text;html=1;align=center;verticalAlign=middle;whiteSpace=wrap;rounded=0;fontFamily=Times New Roman;fontSize=14;" parent="1" vertex="1">
          <mxGeometry x="1480" y="2030" width="60" height="30" as="geometry" />
        </mxCell>
        <mxCell id="PH6FUnhSjzCH8QiEZzul-75" style="edgeStyle=orthogonalEdgeStyle;rounded=0;orthogonalLoop=1;jettySize=auto;html=1;entryX=0.5;entryY=0;entryDx=0;entryDy=0;" parent="1" source="PH6FUnhSjzCH8QiEZzul-73" target="PH6FUnhSjzCH8QiEZzul-74" edge="1">
          <mxGeometry relative="1" as="geometry" />
        </mxCell>
        <mxCell id="PH6FUnhSjzCH8QiEZzul-81" style="edgeStyle=orthogonalEdgeStyle;rounded=0;orthogonalLoop=1;jettySize=auto;html=1;exitX=0;exitY=1;exitDx=0;exitDy=0;entryX=0.5;entryY=0;entryDx=0;entryDy=0;" parent="1" source="PH6FUnhSjzCH8QiEZzul-73" target="PH6FUnhSjzCH8QiEZzul-78" edge="1">
          <mxGeometry relative="1" as="geometry" />
        </mxCell>
        <mxCell id="PH6FUnhSjzCH8QiEZzul-83" style="edgeStyle=orthogonalEdgeStyle;rounded=0;orthogonalLoop=1;jettySize=auto;html=1;entryX=0.5;entryY=0;entryDx=0;entryDy=0;" parent="1" source="PH6FUnhSjzCH8QiEZzul-73" target="PH6FUnhSjzCH8QiEZzul-82" edge="1">
          <mxGeometry relative="1" as="geometry" />
        </mxCell>
        <mxCell id="PH6FUnhSjzCH8QiEZzul-87" style="edgeStyle=orthogonalEdgeStyle;rounded=0;orthogonalLoop=1;jettySize=auto;html=1;exitX=1;exitY=1;exitDx=0;exitDy=0;entryX=0.5;entryY=0;entryDx=0;entryDy=0;" parent="1" source="PH6FUnhSjzCH8QiEZzul-73" target="PH6FUnhSjzCH8QiEZzul-86" edge="1">
          <mxGeometry relative="1" as="geometry" />
        </mxCell>
        <mxCell id="PH6FUnhSjzCH8QiEZzul-92" style="edgeStyle=orthogonalEdgeStyle;rounded=0;orthogonalLoop=1;jettySize=auto;html=1;exitX=1;exitY=0.5;exitDx=0;exitDy=0;entryX=0.5;entryY=0;entryDx=0;entryDy=0;" parent="1" source="PH6FUnhSjzCH8QiEZzul-73" target="PH6FUnhSjzCH8QiEZzul-90" edge="1">
          <mxGeometry relative="1" as="geometry" />
        </mxCell>
        <mxCell id="PH6FUnhSjzCH8QiEZzul-73" value="" style="ellipse;whiteSpace=wrap;html=1;aspect=fixed;" parent="1" vertex="1">
          <mxGeometry x="1300" y="2230" width="80" height="80" as="geometry" />
        </mxCell>
        <mxCell id="PH6FUnhSjzCH8QiEZzul-74" value="b = 1" style="rhombus;whiteSpace=wrap;html=1;fontFamily=Times New Roman;" parent="1" vertex="1">
          <mxGeometry x="640" y="2380" width="130" height="80" as="geometry" />
        </mxCell>
        <mxCell id="LwyQZr5xyhnIRN00urlC-9" style="edgeStyle=orthogonalEdgeStyle;rounded=0;orthogonalLoop=1;jettySize=auto;html=1;entryX=0;entryY=0.5;entryDx=0;entryDy=0;" edge="1" parent="1" source="PH6FUnhSjzCH8QiEZzul-76" target="LwyQZr5xyhnIRN00urlC-8">
          <mxGeometry relative="1" as="geometry">
            <Array as="points">
              <mxPoint x="705" y="3250" />
            </Array>
          </mxGeometry>
        </mxCell>
        <mxCell id="PH6FUnhSjzCH8QiEZzul-76" value="&lt;span class=&quot;fontstyle01&quot;&gt;&lt;span style=&quot;font-size:11.0pt;line-height:103%;mso-fareast-font-family:&amp;quot;Times New Roman&amp;quot;;&lt;br/&gt;mso-bidi-font-family:&amp;quot;Times New Roman&amp;quot;;mso-ansi-language:EN-US;mso-fareast-language:&lt;br/&gt;EN-US;mso-bidi-language:AR-SA&quot; lang=&quot;EN-US&quot;&gt;Display a list of employees based on the&lt;br/&gt;selected department&lt;/span&gt;&lt;/span&gt;" style="shape=rectangle;whiteSpace=wrap;html=1;backgroundOutline=1;darkOpacity=0.05;direction=south;fontFamily=Times New Roman;" parent="1" vertex="1">
          <mxGeometry x="608.75" y="2680" width="192.5" height="80" as="geometry" />
        </mxCell>
        <mxCell id="PH6FUnhSjzCH8QiEZzul-77" style="edgeStyle=orthogonalEdgeStyle;rounded=0;orthogonalLoop=1;jettySize=auto;html=1;entryX=0;entryY=0.5;entryDx=0;entryDy=0;entryPerimeter=0;" parent="1" source="PH6FUnhSjzCH8QiEZzul-74" target="PH6FUnhSjzCH8QiEZzul-76" edge="1">
          <mxGeometry relative="1" as="geometry" />
        </mxCell>
        <mxCell id="PH6FUnhSjzCH8QiEZzul-78" value="b = 2" style="rhombus;whiteSpace=wrap;html=1;fontFamily=Times New Roman;" parent="1" vertex="1">
          <mxGeometry x="940" y="2380" width="130" height="80" as="geometry" />
        </mxCell>
        <mxCell id="PH6FUnhSjzCH8QiEZzul-79" value="&lt;span class=&quot;fontstyle01&quot;&gt;&lt;span style=&quot;font-size:11.0pt;line-height:103%;mso-fareast-font-family:&amp;quot;Times New Roman&amp;quot;;&lt;br/&gt;mso-bidi-font-family:&amp;quot;Times New Roman&amp;quot;;mso-ansi-language:EN-US;mso-fareast-language:&lt;br/&gt;EN-US;mso-bidi-language:AR-SA&quot; lang=&quot;EN-US&quot;&gt;Display a list of employees with the status “Working”&lt;/span&gt;&lt;/span&gt;" style="shape=rectangle;whiteSpace=wrap;html=1;backgroundOutline=1;darkOpacity=0.05;direction=south;fontFamily=Times New Roman;" parent="1" vertex="1">
          <mxGeometry x="908.75" y="2680" width="192.5" height="80" as="geometry" />
        </mxCell>
        <mxCell id="PH6FUnhSjzCH8QiEZzul-80" style="edgeStyle=orthogonalEdgeStyle;rounded=0;orthogonalLoop=1;jettySize=auto;html=1;entryX=0;entryY=0.5;entryDx=0;entryDy=0;entryPerimeter=0;" parent="1" source="PH6FUnhSjzCH8QiEZzul-78" target="PH6FUnhSjzCH8QiEZzul-79" edge="1">
          <mxGeometry relative="1" as="geometry" />
        </mxCell>
        <mxCell id="PH6FUnhSjzCH8QiEZzul-85" style="edgeStyle=orthogonalEdgeStyle;rounded=0;orthogonalLoop=1;jettySize=auto;html=1;" parent="1" source="PH6FUnhSjzCH8QiEZzul-82" target="PH6FUnhSjzCH8QiEZzul-84" edge="1">
          <mxGeometry relative="1" as="geometry" />
        </mxCell>
        <mxCell id="PH6FUnhSjzCH8QiEZzul-82" value="b = 3" style="rhombus;whiteSpace=wrap;html=1;fontFamily=Times New Roman;" parent="1" vertex="1">
          <mxGeometry x="1275" y="2380" width="130" height="80" as="geometry" />
        </mxCell>
        <mxCell id="LwyQZr5xyhnIRN00urlC-11" style="edgeStyle=orthogonalEdgeStyle;rounded=0;orthogonalLoop=1;jettySize=auto;html=1;entryX=0.5;entryY=0;entryDx=0;entryDy=0;" edge="1" parent="1" source="PH6FUnhSjzCH8QiEZzul-84" target="LwyQZr5xyhnIRN00urlC-8">
          <mxGeometry relative="1" as="geometry" />
        </mxCell>
        <mxCell id="PH6FUnhSjzCH8QiEZzul-84" value="&lt;span class=&quot;fontstyle01&quot;&gt;&lt;span style=&quot;font-size:11.0pt;line-height:103%;mso-fareast-font-family:&amp;quot;Times New Roman&amp;quot;;&lt;br/&gt;mso-bidi-font-family:&amp;quot;Times New Roman&amp;quot;;mso-ansi-language:EN-US;mso-fareast-language:&lt;br/&gt;EN-US;mso-bidi-language:AR-SA&quot; lang=&quot;EN-US&quot;&gt;Display a list of employees with the status “Resigned”&lt;/span&gt;&lt;/span&gt;" style="shape=rectangle;whiteSpace=wrap;html=1;backgroundOutline=1;darkOpacity=0.05;direction=south;fontFamily=Times New Roman;" parent="1" vertex="1">
          <mxGeometry x="1243.75" y="2680" width="192.5" height="80" as="geometry" />
        </mxCell>
        <mxCell id="PH6FUnhSjzCH8QiEZzul-86" value="b = 4" style="rhombus;whiteSpace=wrap;html=1;fontFamily=Times New Roman;" parent="1" vertex="1">
          <mxGeometry x="1610" y="2380" width="130" height="80" as="geometry" />
        </mxCell>
        <mxCell id="PH6FUnhSjzCH8QiEZzul-88" value="&lt;span class=&quot;fontstyle01&quot;&gt;&lt;span style=&quot;font-size:11.0pt;line-height:103%;mso-fareast-font-family:&amp;quot;Times New Roman&amp;quot;;&lt;br/&gt;mso-bidi-font-family:&amp;quot;Times New Roman&amp;quot;;mso-ansi-language:EN-US;mso-fareast-language:&lt;br/&gt;EN-US;mso-bidi-language:AR-SA&quot; lang=&quot;EN-US&quot;&gt;Display a list of employees with total income in&lt;br/&gt;ascending order&lt;/span&gt;&lt;/span&gt;" style="shape=rectangle;whiteSpace=wrap;html=1;backgroundOutline=1;darkOpacity=0.05;direction=south;fontFamily=Times New Roman;" parent="1" vertex="1">
          <mxGeometry x="1578.75" y="2680" width="192.5" height="80" as="geometry" />
        </mxCell>
        <mxCell id="PH6FUnhSjzCH8QiEZzul-89" style="edgeStyle=orthogonalEdgeStyle;rounded=0;orthogonalLoop=1;jettySize=auto;html=1;entryX=0;entryY=0.5;entryDx=0;entryDy=0;entryPerimeter=0;" parent="1" source="PH6FUnhSjzCH8QiEZzul-86" target="PH6FUnhSjzCH8QiEZzul-88" edge="1">
          <mxGeometry relative="1" as="geometry" />
        </mxCell>
        <mxCell id="PH6FUnhSjzCH8QiEZzul-90" value="b = 5" style="rhombus;whiteSpace=wrap;html=1;fontFamily=Times New Roman;" parent="1" vertex="1">
          <mxGeometry x="1890" y="2380" width="130" height="80" as="geometry" />
        </mxCell>
        <mxCell id="LwyQZr5xyhnIRN00urlC-13" style="edgeStyle=orthogonalEdgeStyle;rounded=0;orthogonalLoop=1;jettySize=auto;html=1;entryX=1;entryY=0.5;entryDx=0;entryDy=0;" edge="1" parent="1" source="PH6FUnhSjzCH8QiEZzul-93" target="LwyQZr5xyhnIRN00urlC-8">
          <mxGeometry relative="1" as="geometry">
            <Array as="points">
              <mxPoint x="1960" y="3250" />
            </Array>
          </mxGeometry>
        </mxCell>
        <mxCell id="PH6FUnhSjzCH8QiEZzul-93" value="&lt;span style=&quot;font-size: 14px;&quot; class=&quot;fontstyle01&quot;&gt;&lt;span style=&quot;font-size: 14px;&quot; lang=&quot;EN-US&quot;&gt;Display&lt;br style=&quot;font-size: 14px;&quot;&gt;a list of employees with a basic salary greater than $3000&lt;/span&gt;&lt;/span&gt;&lt;br style=&quot;font-size: 14px;&quot;&gt;&lt;div style=&quot;font-size: 14px;&quot;&gt;&lt;br style=&quot;font-size: 14px;&quot;&gt;&lt;/div&gt;" style="shape=rectangle;whiteSpace=wrap;html=1;backgroundOutline=1;darkOpacity=0.05;direction=south;fontFamily=Times New Roman;" parent="1" vertex="1">
          <mxGeometry x="1858.75" y="2680" width="192.5" height="80" as="geometry" />
        </mxCell>
        <mxCell id="PH6FUnhSjzCH8QiEZzul-94" style="edgeStyle=orthogonalEdgeStyle;rounded=0;orthogonalLoop=1;jettySize=auto;html=1;entryX=0;entryY=0.5;entryDx=0;entryDy=0;entryPerimeter=0;" parent="1" source="PH6FUnhSjzCH8QiEZzul-90" target="PH6FUnhSjzCH8QiEZzul-93" edge="1">
          <mxGeometry relative="1" as="geometry" />
        </mxCell>
        <mxCell id="LwyQZr5xyhnIRN00urlC-1" value="" style="ellipse;whiteSpace=wrap;html=1;aspect=fixed;" vertex="1" parent="1">
          <mxGeometry x="-530" y="3210" width="80" height="80" as="geometry" />
        </mxCell>
        <mxCell id="LwyQZr5xyhnIRN00urlC-4" style="edgeStyle=orthogonalEdgeStyle;rounded=0;orthogonalLoop=1;jettySize=auto;html=1;entryX=0.125;entryY=0.254;entryDx=0;entryDy=0;entryPerimeter=0;" edge="1" parent="1" source="PH6FUnhSjzCH8QiEZzul-50" target="LwyQZr5xyhnIRN00urlC-1">
          <mxGeometry relative="1" as="geometry">
            <Array as="points">
              <mxPoint x="-775" y="3230" />
            </Array>
          </mxGeometry>
        </mxCell>
        <mxCell id="LwyQZr5xyhnIRN00urlC-6" style="edgeStyle=orthogonalEdgeStyle;rounded=0;orthogonalLoop=1;jettySize=auto;html=1;" edge="1" parent="1" source="PH6FUnhSjzCH8QiEZzul-59">
          <mxGeometry relative="1" as="geometry">
            <mxPoint x="-455" y="3235" as="targetPoint" />
            <Array as="points">
              <mxPoint x="-235" y="3235" />
              <mxPoint x="-455" y="3235" />
            </Array>
          </mxGeometry>
        </mxCell>
        <mxCell id="LwyQZr5xyhnIRN00urlC-8" value="" style="ellipse;whiteSpace=wrap;html=1;aspect=fixed;" vertex="1" parent="1">
          <mxGeometry x="1300" y="3210" width="80" height="80" as="geometry" />
        </mxCell>
        <mxCell id="LwyQZr5xyhnIRN00urlC-10" style="edgeStyle=orthogonalEdgeStyle;rounded=0;orthogonalLoop=1;jettySize=auto;html=1;entryX=0;entryY=0.375;entryDx=0;entryDy=0;entryPerimeter=0;" edge="1" parent="1" source="PH6FUnhSjzCH8QiEZzul-79" target="LwyQZr5xyhnIRN00urlC-8">
          <mxGeometry relative="1" as="geometry">
            <Array as="points">
              <mxPoint x="1000" y="3240" />
            </Array>
          </mxGeometry>
        </mxCell>
        <mxCell id="LwyQZr5xyhnIRN00urlC-12" style="edgeStyle=orthogonalEdgeStyle;rounded=0;orthogonalLoop=1;jettySize=auto;html=1;entryX=0.995;entryY=0.361;entryDx=0;entryDy=0;entryPerimeter=0;" edge="1" parent="1" source="PH6FUnhSjzCH8QiEZzul-88" target="LwyQZr5xyhnIRN00urlC-8">
          <mxGeometry relative="1" as="geometry">
            <Array as="points">
              <mxPoint x="1675" y="3239" />
            </Array>
          </mxGeometry>
        </mxCell>
        <mxCell id="LwyQZr5xyhnIRN00urlC-16" style="edgeStyle=orthogonalEdgeStyle;rounded=0;orthogonalLoop=1;jettySize=auto;html=1;entryX=0;entryY=0.5;entryDx=0;entryDy=0;" edge="1" parent="1" source="LwyQZr5xyhnIRN00urlC-1" target="LwyQZr5xyhnIRN00urlC-20">
          <mxGeometry relative="1" as="geometry">
            <mxPoint x="342.5" y="3770" as="targetPoint" />
            <Array as="points">
              <mxPoint x="-490" y="3770" />
            </Array>
          </mxGeometry>
        </mxCell>
        <mxCell id="LwyQZr5xyhnIRN00urlC-19" style="edgeStyle=orthogonalEdgeStyle;rounded=0;orthogonalLoop=1;jettySize=auto;html=1;entryX=1;entryY=0.5;entryDx=0;entryDy=0;" edge="1" parent="1" source="LwyQZr5xyhnIRN00urlC-8" target="LwyQZr5xyhnIRN00urlC-20">
          <mxGeometry relative="1" as="geometry">
            <mxPoint x="497.5" y="3770" as="targetPoint" />
            <Array as="points">
              <mxPoint x="1340" y="3770" />
            </Array>
          </mxGeometry>
        </mxCell>
        <mxCell id="LwyQZr5xyhnIRN00urlC-20" value="" style="ellipse;whiteSpace=wrap;html=1;aspect=fixed;" vertex="1" parent="1">
          <mxGeometry x="380" y="3730" width="80" height="80" as="geometry" />
        </mxCell>
        <mxCell id="LwyQZr5xyhnIRN00urlC-25" style="edgeStyle=orthogonalEdgeStyle;rounded=0;orthogonalLoop=1;jettySize=auto;html=1;entryX=1;entryY=0.5;entryDx=0;entryDy=0;" edge="1" parent="1" source="LwyQZr5xyhnIRN00urlC-21" target="LwyQZr5xyhnIRN00urlC-23">
          <mxGeometry relative="1" as="geometry" />
        </mxCell>
        <mxCell id="LwyQZr5xyhnIRN00urlC-29" style="edgeStyle=orthogonalEdgeStyle;rounded=0;orthogonalLoop=1;jettySize=auto;html=1;" edge="1" parent="1" source="LwyQZr5xyhnIRN00urlC-21" target="LwyQZr5xyhnIRN00urlC-24">
          <mxGeometry relative="1" as="geometry" />
        </mxCell>
        <mxCell id="LwyQZr5xyhnIRN00urlC-21" value="Result" style="shape=note;whiteSpace=wrap;html=1;backgroundOutline=1;darkOpacity=0.05;direction=south;fontFamily=Times New Roman;fontSize=14;" vertex="1" parent="1">
          <mxGeometry x="370" y="4140" width="100" height="80" as="geometry" />
        </mxCell>
        <mxCell id="LwyQZr5xyhnIRN00urlC-22" style="edgeStyle=orthogonalEdgeStyle;rounded=0;orthogonalLoop=1;jettySize=auto;html=1;entryX=0;entryY=0.5;entryDx=0;entryDy=0;entryPerimeter=0;" edge="1" parent="1" source="LwyQZr5xyhnIRN00urlC-20" target="LwyQZr5xyhnIRN00urlC-21">
          <mxGeometry relative="1" as="geometry" />
        </mxCell>
        <mxCell id="LwyQZr5xyhnIRN00urlC-26" style="edgeStyle=orthogonalEdgeStyle;rounded=0;orthogonalLoop=1;jettySize=auto;html=1;" edge="1" parent="1" source="LwyQZr5xyhnIRN00urlC-23">
          <mxGeometry relative="1" as="geometry">
            <mxPoint x="380" y="390" as="targetPoint" />
            <Array as="points">
              <mxPoint x="-1570" y="4180" />
              <mxPoint x="-1570" y="390" />
            </Array>
          </mxGeometry>
        </mxCell>
        <mxCell id="LwyQZr5xyhnIRN00urlC-23" value="comfilm == y || confilm ==Y" style="rhombus;whiteSpace=wrap;html=1;fontFamily=Times New Roman;" vertex="1" parent="1">
          <mxGeometry x="-180" y="4140" width="155" height="80" as="geometry" />
        </mxCell>
        <mxCell id="LwyQZr5xyhnIRN00urlC-31" style="edgeStyle=orthogonalEdgeStyle;rounded=0;orthogonalLoop=1;jettySize=auto;html=1;" edge="1" parent="1" source="LwyQZr5xyhnIRN00urlC-24" target="LwyQZr5xyhnIRN00urlC-30">
          <mxGeometry relative="1" as="geometry" />
        </mxCell>
        <mxCell id="LwyQZr5xyhnIRN00urlC-24" value="comfilm == n || confilm ==N" style="rhombus;whiteSpace=wrap;html=1;fontFamily=Times New Roman;" vertex="1" parent="1">
          <mxGeometry x="342.5" y="4410" width="155" height="80" as="geometry" />
        </mxCell>
        <mxCell id="LwyQZr5xyhnIRN00urlC-27" value="True" style="text;html=1;align=center;verticalAlign=middle;whiteSpace=wrap;rounded=0;fontFamily=Times New Roman;fontSize=25;" vertex="1" parent="1">
          <mxGeometry x="-660" y="4140" width="60" height="30" as="geometry" />
        </mxCell>
        <mxCell id="LwyQZr5xyhnIRN00urlC-30" value="Start" style="ellipse;whiteSpace=wrap;html=1;fontFamily=Times New Roman;fontSize=15;" vertex="1" parent="1">
          <mxGeometry x="360" y="4990" width="120" height="80" as="geometry" />
        </mxCell>
      </root>
    </mxGraphModel>
  </diagram>
  <diagram id="IaxGctbaszSJjb9RtEru" name="Show all employees">
    <mxGraphModel dx="3240" dy="1393" grid="1" gridSize="10" guides="1" tooltips="1" connect="1" arrows="1" fold="1" page="1" pageScale="1" pageWidth="850" pageHeight="1100" math="0" shadow="0">
      <root>
        <mxCell id="0" />
        <mxCell id="1" parent="0" />
        <mxCell id="SWbBXVLTKiwHS2yK-0xO-1" value="Start" style="ellipse;whiteSpace=wrap;html=1;fontFamily=Times New Roman;fontSize=15;" vertex="1" parent="1">
          <mxGeometry x="340" y="40" width="120" height="80" as="geometry" />
        </mxCell>
        <mxCell id="JihcaVwDdjv_p1AmT1F5-8" style="edgeStyle=orthogonalEdgeStyle;rounded=0;orthogonalLoop=1;jettySize=auto;html=1;exitX=0.5;exitY=1;exitDx=0;exitDy=0;" edge="1" parent="1" source="SWbBXVLTKiwHS2yK-0xO-1" target="JihcaVwDdjv_p1AmT1F5-7">
          <mxGeometry relative="1" as="geometry">
            <mxPoint x="403" y="130" as="sourcePoint" />
            <Array as="points">
              <mxPoint x="400" y="340" />
              <mxPoint x="400" y="340" />
            </Array>
          </mxGeometry>
        </mxCell>
        <mxCell id="IZZUWbXBkLg6LbFzS8tK-4" style="edgeStyle=orthogonalEdgeStyle;rounded=0;orthogonalLoop=1;jettySize=auto;html=1;exitX=1;exitY=0.5;exitDx=0;exitDy=0;" edge="1" parent="1" target="IZZUWbXBkLg6LbFzS8tK-3">
          <mxGeometry relative="1" as="geometry">
            <mxPoint x="462.5" y="570" as="sourcePoint" />
            <Array as="points">
              <mxPoint x="802.5" y="570" />
            </Array>
          </mxGeometry>
        </mxCell>
        <mxCell id="Yuo_TopqviNiM5wRy9hY-2" style="edgeStyle=orthogonalEdgeStyle;rounded=0;orthogonalLoop=1;jettySize=auto;html=1;entryX=0.5;entryY=0;entryDx=0;entryDy=0;" edge="1" parent="1" source="JihcaVwDdjv_p1AmT1F5-7" target="Yuo_TopqviNiM5wRy9hY-1">
          <mxGeometry relative="1" as="geometry" />
        </mxCell>
        <mxCell id="JihcaVwDdjv_p1AmT1F5-7" value="Query" style="rounded=0;whiteSpace=wrap;html=1;fontFamily=Times New Roman;fontSize=14;" vertex="1" parent="1">
          <mxGeometry x="342.5" y="410" width="120" height="60" as="geometry" />
        </mxCell>
        <mxCell id="Yuo_TopqviNiM5wRy9hY-4" style="edgeStyle=orthogonalEdgeStyle;rounded=0;orthogonalLoop=1;jettySize=auto;html=1;entryX=0;entryY=0.5;entryDx=0;entryDy=0;" edge="1" parent="1" source="IZZUWbXBkLg6LbFzS8tK-1" target="Yuo_TopqviNiM5wRy9hY-3">
          <mxGeometry relative="1" as="geometry">
            <Array as="points">
              <mxPoint y="820" />
            </Array>
          </mxGeometry>
        </mxCell>
        <mxCell id="IZZUWbXBkLg6LbFzS8tK-1" value="Display employees list" style="shape=note;whiteSpace=wrap;html=1;backgroundOutline=1;darkOpacity=0.05;direction=south;fontFamily=Times New Roman;fontSize=14;" vertex="1" parent="1">
          <mxGeometry x="-92.5" y="670" width="190" height="80" as="geometry" />
        </mxCell>
        <mxCell id="IZZUWbXBkLg6LbFzS8tK-2" style="edgeStyle=orthogonalEdgeStyle;rounded=0;orthogonalLoop=1;jettySize=auto;html=1;entryX=0;entryY=0.5;entryDx=0;entryDy=0;entryPerimeter=0;exitX=0;exitY=0.5;exitDx=0;exitDy=0;" edge="1" parent="1" target="IZZUWbXBkLg6LbFzS8tK-1">
          <mxGeometry relative="1" as="geometry">
            <mxPoint x="342.5" y="570" as="sourcePoint" />
            <Array as="points">
              <mxPoint x="2.5" y="570" />
            </Array>
          </mxGeometry>
        </mxCell>
        <mxCell id="Yuo_TopqviNiM5wRy9hY-5" style="edgeStyle=orthogonalEdgeStyle;rounded=0;orthogonalLoop=1;jettySize=auto;html=1;entryX=1;entryY=0.5;entryDx=0;entryDy=0;" edge="1" parent="1" source="IZZUWbXBkLg6LbFzS8tK-3" target="Yuo_TopqviNiM5wRy9hY-3">
          <mxGeometry relative="1" as="geometry">
            <Array as="points">
              <mxPoint x="800" y="820" />
            </Array>
          </mxGeometry>
        </mxCell>
        <mxCell id="IZZUWbXBkLg6LbFzS8tK-3" value="Display message &quot;No employees found&quot;" style="shape=note;whiteSpace=wrap;html=1;backgroundOutline=1;darkOpacity=0.05;direction=south;fontFamily=Times New Roman;fontSize=14;" vertex="1" parent="1">
          <mxGeometry x="707.5" y="670" width="190" height="80" as="geometry" />
        </mxCell>
        <mxCell id="IZZUWbXBkLg6LbFzS8tK-6" value="True" style="text;html=1;align=center;verticalAlign=middle;whiteSpace=wrap;rounded=0;fontFamily=Times New Roman;fontSize=14;" vertex="1" parent="1">
          <mxGeometry x="162.5" y="530" width="60" height="30" as="geometry" />
        </mxCell>
        <mxCell id="IZZUWbXBkLg6LbFzS8tK-7" value="False" style="text;html=1;align=center;verticalAlign=middle;whiteSpace=wrap;rounded=0;fontFamily=Times New Roman;fontSize=14;" vertex="1" parent="1">
          <mxGeometry x="582.5" y="900" width="60" height="30" as="geometry" />
        </mxCell>
        <mxCell id="IZZUWbXBkLg6LbFzS8tK-18" style="edgeStyle=orthogonalEdgeStyle;rounded=0;orthogonalLoop=1;jettySize=auto;html=1;entryX=0;entryY=0.5;entryDx=0;entryDy=0;" edge="1" parent="1" source="IZZUWbXBkLg6LbFzS8tK-11" target="IZZUWbXBkLg6LbFzS8tK-17">
          <mxGeometry relative="1" as="geometry">
            <Array as="points">
              <mxPoint x="2.5" y="1720" />
            </Array>
          </mxGeometry>
        </mxCell>
        <mxCell id="IZZUWbXBkLg6LbFzS8tK-11" value="Return menu" style="shape=rectangle;whiteSpace=wrap;html=1;backgroundOutline=1;darkOpacity=0.05;direction=south;fontFamily=Times New Roman;fontSize=14;" vertex="1" parent="1">
          <mxGeometry x="-97.5" y="1160" width="190" height="80" as="geometry" />
        </mxCell>
        <mxCell id="IZZUWbXBkLg6LbFzS8tK-19" style="edgeStyle=orthogonalEdgeStyle;rounded=0;orthogonalLoop=1;jettySize=auto;html=1;entryX=1;entryY=0.5;entryDx=0;entryDy=0;" edge="1" parent="1" source="IZZUWbXBkLg6LbFzS8tK-13" target="IZZUWbXBkLg6LbFzS8tK-17">
          <mxGeometry relative="1" as="geometry">
            <Array as="points">
              <mxPoint x="802.5" y="1720" />
            </Array>
          </mxGeometry>
        </mxCell>
        <mxCell id="IZZUWbXBkLg6LbFzS8tK-13" value="Keep screen" style="shape=recttangle;whiteSpace=wrap;html=1;backgroundOutline=1;darkOpacity=0.05;direction=south;fontFamily=Times New Roman;fontSize=14;" vertex="1" parent="1">
          <mxGeometry x="702.5" y="1160" width="190" height="80" as="geometry" />
        </mxCell>
        <mxCell id="IZZUWbXBkLg6LbFzS8tK-15" value="True" style="text;html=1;align=center;verticalAlign=middle;whiteSpace=wrap;rounded=0;fontFamily=Times New Roman;fontSize=14;" vertex="1" parent="1">
          <mxGeometry x="162.5" y="900" width="60" height="30" as="geometry" />
        </mxCell>
        <mxCell id="IZZUWbXBkLg6LbFzS8tK-16" value="False" style="text;html=1;align=center;verticalAlign=middle;whiteSpace=wrap;rounded=0;fontFamily=Times New Roman;fontSize=14;" vertex="1" parent="1">
          <mxGeometry x="562.5" y="530" width="60" height="30" as="geometry" />
        </mxCell>
        <mxCell id="IZZUWbXBkLg6LbFzS8tK-17" value="End" style="ellipse;whiteSpace=wrap;html=1;fontFamily=Times New Roman;fontSize=15;" vertex="1" parent="1">
          <mxGeometry x="342.5" y="1680" width="120" height="80" as="geometry" />
        </mxCell>
        <mxCell id="Yuo_TopqviNiM5wRy9hY-1" value="Are there employees" style="rhombus;whiteSpace=wrap;html=1;fontFamily=Times New Roman;fontSize=14;" vertex="1" parent="1">
          <mxGeometry x="312.5" y="530" width="180" height="80" as="geometry" />
        </mxCell>
        <mxCell id="Yuo_TopqviNiM5wRy9hY-7" style="edgeStyle=orthogonalEdgeStyle;rounded=0;orthogonalLoop=1;jettySize=auto;html=1;exitX=1;exitY=1;exitDx=0;exitDy=0;" edge="1" parent="1" source="Yuo_TopqviNiM5wRy9hY-3" target="IZZUWbXBkLg6LbFzS8tK-13">
          <mxGeometry relative="1" as="geometry">
            <Array as="points">
              <mxPoint x="448" y="930" />
              <mxPoint x="798" y="930" />
            </Array>
          </mxGeometry>
        </mxCell>
        <mxCell id="Yuo_TopqviNiM5wRy9hY-3" value="Return" style="rhombus;whiteSpace=wrap;html=1;fontFamily=Times New Roman;fontSize=14;" vertex="1" parent="1">
          <mxGeometry x="312.5" y="780" width="180" height="80" as="geometry" />
        </mxCell>
        <mxCell id="Yuo_TopqviNiM5wRy9hY-6" style="edgeStyle=orthogonalEdgeStyle;rounded=0;orthogonalLoop=1;jettySize=auto;html=1;exitX=0;exitY=1;exitDx=0;exitDy=0;entryX=0;entryY=0.5;entryDx=0;entryDy=0;entryPerimeter=0;" edge="1" parent="1" source="Yuo_TopqviNiM5wRy9hY-3" target="IZZUWbXBkLg6LbFzS8tK-11">
          <mxGeometry relative="1" as="geometry">
            <Array as="points">
              <mxPoint x="358" y="930" />
              <mxPoint x="-2" y="930" />
            </Array>
          </mxGeometry>
        </mxCell>
      </root>
    </mxGraphModel>
  </diagram>
  <diagram id="Bs2ndoo94ozg__JLaplj" name="Add a new employee">
    <mxGraphModel dx="1362" dy="808" grid="1" gridSize="10" guides="1" tooltips="1" connect="1" arrows="1" fold="1" page="1" pageScale="1" pageWidth="850" pageHeight="1100" math="0" shadow="0">
      <root>
        <mxCell id="0" />
        <mxCell id="1" parent="0" />
        <mxCell id="8LcrwteMfx1Ie63BR6z2-5" style="edgeStyle=orthogonalEdgeStyle;rounded=0;orthogonalLoop=1;jettySize=auto;html=1;entryX=0.5;entryY=0;entryDx=0;entryDy=0;" parent="1" source="D0-waijyj5slMj2cp41Y-1" target="8LcrwteMfx1Ie63BR6z2-1" edge="1">
          <mxGeometry relative="1" as="geometry" />
        </mxCell>
        <mxCell id="D0-waijyj5slMj2cp41Y-1" value="Start" style="ellipse;whiteSpace=wrap;html=1;fontFamily=Times New Roman;fontSize=14;" parent="1" vertex="1">
          <mxGeometry x="365" y="50" width="120" height="80" as="geometry" />
        </mxCell>
        <mxCell id="8LcrwteMfx1Ie63BR6z2-7" style="edgeStyle=orthogonalEdgeStyle;rounded=0;orthogonalLoop=1;jettySize=auto;html=1;" parent="1" source="8LcrwteMfx1Ie63BR6z2-1" target="8LcrwteMfx1Ie63BR6z2-6" edge="1">
          <mxGeometry relative="1" as="geometry" />
        </mxCell>
        <mxCell id="8LcrwteMfx1Ie63BR6z2-1" value="int id&lt;div&gt;string name, department, status&lt;/div&gt;&lt;div&gt;float salary&lt;/div&gt;" style="shape=parallelogram;perimeter=parallelogramPerimeter;whiteSpace=wrap;html=1;fixedSize=1;fontFamily=Times New Roman;fontSize=14;" parent="1" vertex="1">
          <mxGeometry x="325" y="280" width="200" height="60" as="geometry" />
        </mxCell>
        <mxCell id="KPSNWA64mTf1ZiO_VX_b-6" style="edgeStyle=orthogonalEdgeStyle;rounded=0;orthogonalLoop=1;jettySize=auto;html=1;entryX=0.5;entryY=0;entryDx=0;entryDy=0;" parent="1" source="8LcrwteMfx1Ie63BR6z2-6" target="KPSNWA64mTf1ZiO_VX_b-5" edge="1">
          <mxGeometry relative="1" as="geometry" />
        </mxCell>
        <mxCell id="8LcrwteMfx1Ie63BR6z2-6" value="Save employees" style="shape=diamond ,rounded=0;whiteSpace=wrap;html=1;fontFamily=Times New Roman;fontSize=14;" parent="1" vertex="1">
          <mxGeometry x="365" y="550" width="120" height="60" as="geometry" />
        </mxCell>
        <mxCell id="Qt0nUheye7q4eZPZhXE7-2" style="edgeStyle=orthogonalEdgeStyle;rounded=0;orthogonalLoop=1;jettySize=auto;html=1;" parent="1" source="KPSNWA64mTf1ZiO_VX_b-5" target="Qt0nUheye7q4eZPZhXE7-1" edge="1">
          <mxGeometry relative="1" as="geometry" />
        </mxCell>
        <mxCell id="Qt0nUheye7q4eZPZhXE7-4" style="edgeStyle=orthogonalEdgeStyle;rounded=0;orthogonalLoop=1;jettySize=auto;html=1;" parent="1" source="KPSNWA64mTf1ZiO_VX_b-5" target="Qt0nUheye7q4eZPZhXE7-3" edge="1">
          <mxGeometry relative="1" as="geometry" />
        </mxCell>
        <mxCell id="KPSNWA64mTf1ZiO_VX_b-5" value="Employees add successfully?" style="rhombus;whiteSpace=wrap;html=1;" parent="1" vertex="1">
          <mxGeometry x="348" y="800" width="155" height="80" as="geometry" />
        </mxCell>
        <mxCell id="peLghAxrkDYPR6E1w1OU-2" style="edgeStyle=orthogonalEdgeStyle;rounded=0;orthogonalLoop=1;jettySize=auto;html=1;entryX=0;entryY=0.5;entryDx=0;entryDy=0;" parent="1" source="Qt0nUheye7q4eZPZhXE7-1" target="peLghAxrkDYPR6E1w1OU-1" edge="1">
          <mxGeometry relative="1" as="geometry">
            <Array as="points">
              <mxPoint x="175" y="1510" />
            </Array>
          </mxGeometry>
        </mxCell>
        <mxCell id="Qt0nUheye7q4eZPZhXE7-1" value="Employee added" style="shape=note;whiteSpace=wrap;html=1;backgroundOutline=1;darkOpacity=0.05;direction=south;fontFamily=Times New Roman;fontSize=14;" parent="1" vertex="1">
          <mxGeometry x="80" y="1160" width="190" height="80" as="geometry" />
        </mxCell>
        <mxCell id="peLghAxrkDYPR6E1w1OU-3" style="edgeStyle=orthogonalEdgeStyle;rounded=0;orthogonalLoop=1;jettySize=auto;html=1;entryX=1;entryY=0.5;entryDx=0;entryDy=0;" parent="1" source="Qt0nUheye7q4eZPZhXE7-3" target="peLghAxrkDYPR6E1w1OU-1" edge="1">
          <mxGeometry relative="1" as="geometry">
            <Array as="points">
              <mxPoint x="675" y="1510" />
            </Array>
          </mxGeometry>
        </mxCell>
        <mxCell id="Qt0nUheye7q4eZPZhXE7-3" value="Error" style="shape=note;whiteSpace=wrap;html=1;backgroundOutline=1;darkOpacity=0.05;direction=south;fontFamily=Times New Roman;fontSize=14;" parent="1" vertex="1">
          <mxGeometry x="580" y="1160" width="190" height="80" as="geometry" />
        </mxCell>
        <mxCell id="6HM0BnlH-kk_L1L_SH_i-1" value="True" style="text;html=1;align=center;verticalAlign=middle;whiteSpace=wrap;rounded=0;fontFamily=Times New Roman;fontSize=14;" parent="1" vertex="1">
          <mxGeometry x="265" y="810" width="60" height="30" as="geometry" />
        </mxCell>
        <mxCell id="6HM0BnlH-kk_L1L_SH_i-2" value="False" style="text;html=1;align=center;verticalAlign=middle;whiteSpace=wrap;rounded=0;fontFamily=Times New Roman;fontSize=14;" parent="1" vertex="1">
          <mxGeometry x="550" y="810" width="60" height="30" as="geometry" />
        </mxCell>
        <mxCell id="peLghAxrkDYPR6E1w1OU-1" value="Return menu" style="rhombus;whiteSpace=wrap;html=1;" parent="1" vertex="1">
          <mxGeometry x="348" y="1470" width="155" height="80" as="geometry" />
        </mxCell>
        <mxCell id="peLghAxrkDYPR6E1w1OU-9" style="edgeStyle=orthogonalEdgeStyle;rounded=0;orthogonalLoop=1;jettySize=auto;html=1;entryX=0;entryY=0.5;entryDx=0;entryDy=0;" parent="1" source="peLghAxrkDYPR6E1w1OU-4" target="peLghAxrkDYPR6E1w1OU-8" edge="1">
          <mxGeometry relative="1" as="geometry">
            <Array as="points">
              <mxPoint x="160" y="2240" />
            </Array>
          </mxGeometry>
        </mxCell>
        <mxCell id="peLghAxrkDYPR6E1w1OU-4" value="Return menu" style="shape=rectangle;whiteSpace=wrap;html=1;backgroundOutline=1;darkOpacity=0.05;direction=south;fontFamily=Times New Roman;fontSize=14;" parent="1" vertex="1">
          <mxGeometry x="80" y="1880" width="190" height="80" as="geometry" />
        </mxCell>
        <mxCell id="peLghAxrkDYPR6E1w1OU-5" style="edgeStyle=orthogonalEdgeStyle;rounded=0;orthogonalLoop=1;jettySize=auto;html=1;entryX=0.079;entryY=0.57;entryDx=0;entryDy=0;entryPerimeter=0;" parent="1" source="peLghAxrkDYPR6E1w1OU-1" target="peLghAxrkDYPR6E1w1OU-4" edge="1">
          <mxGeometry relative="1" as="geometry">
            <Array as="points">
              <mxPoint x="390" y="1640" />
              <mxPoint x="162" y="1640" />
            </Array>
          </mxGeometry>
        </mxCell>
        <mxCell id="peLghAxrkDYPR6E1w1OU-10" style="edgeStyle=orthogonalEdgeStyle;rounded=0;orthogonalLoop=1;jettySize=auto;html=1;entryX=1;entryY=0.5;entryDx=0;entryDy=0;" parent="1" source="peLghAxrkDYPR6E1w1OU-6" target="peLghAxrkDYPR6E1w1OU-8" edge="1">
          <mxGeometry relative="1" as="geometry">
            <Array as="points">
              <mxPoint x="680" y="2240" />
            </Array>
          </mxGeometry>
        </mxCell>
        <mxCell id="peLghAxrkDYPR6E1w1OU-6" value="Keep" style="shape=rectangle&#xa;;whiteSpace=wrap;html=1;backgroundOutline=1;darkOpacity=0.05;direction=south;fontFamily=Times New Roman;fontSize=14;" parent="1" vertex="1">
          <mxGeometry x="580" y="1880" width="190" height="80" as="geometry" />
        </mxCell>
        <mxCell id="peLghAxrkDYPR6E1w1OU-7" style="edgeStyle=orthogonalEdgeStyle;rounded=0;orthogonalLoop=1;jettySize=auto;html=1;exitX=1;exitY=1;exitDx=0;exitDy=0;entryX=0;entryY=0.5;entryDx=0;entryDy=0;entryPerimeter=0;" parent="1" source="peLghAxrkDYPR6E1w1OU-1" target="peLghAxrkDYPR6E1w1OU-6" edge="1">
          <mxGeometry relative="1" as="geometry">
            <Array as="points">
              <mxPoint x="464" y="1640" />
              <mxPoint x="675" y="1640" />
            </Array>
          </mxGeometry>
        </mxCell>
        <mxCell id="peLghAxrkDYPR6E1w1OU-8" value="End" style="ellipse;whiteSpace=wrap;html=1;fontFamily=Times New Roman;fontSize=14;" parent="1" vertex="1">
          <mxGeometry x="365.5" y="2200" width="120" height="80" as="geometry" />
        </mxCell>
      </root>
    </mxGraphModel>
  </diagram>
  <diagram id="csF0AZA_ZgpdIYlViLuu" name="Update/Modify employee information based on the employee code ">
    <mxGraphModel dx="1434" dy="836" grid="1" gridSize="10" guides="1" tooltips="1" connect="1" arrows="1" fold="1" page="1" pageScale="1" pageWidth="850" pageHeight="1100" math="0" shadow="0">
      <root>
        <mxCell id="0" />
        <mxCell id="1" parent="0" />
        <mxCell id="xsUVzvMuwK0ziPxqJxkE-2" style="edgeStyle=orthogonalEdgeStyle;rounded=0;orthogonalLoop=1;jettySize=auto;html=1;" edge="1" parent="1" source="x7kjkiQOMWIOBe2v_EMI-1" target="xsUVzvMuwK0ziPxqJxkE-1">
          <mxGeometry relative="1" as="geometry" />
        </mxCell>
        <mxCell id="x7kjkiQOMWIOBe2v_EMI-1" value="Start" style="ellipse;whiteSpace=wrap;html=1;fontFamily=Times New Roman;fontSize=14;" vertex="1" parent="1">
          <mxGeometry x="360" y="80" width="120" height="80" as="geometry" />
        </mxCell>
        <mxCell id="G1d0ef21UjEmeTdIOgmG-2" style="edgeStyle=orthogonalEdgeStyle;rounded=0;orthogonalLoop=1;jettySize=auto;html=1;entryX=0.5;entryY=0;entryDx=0;entryDy=0;" edge="1" parent="1" source="xsUVzvMuwK0ziPxqJxkE-1" target="G1d0ef21UjEmeTdIOgmG-1">
          <mxGeometry relative="1" as="geometry" />
        </mxCell>
        <mxCell id="xsUVzvMuwK0ziPxqJxkE-1" value="int id" style="shape=parallelogram;perimeter=parallelogramPerimeter;whiteSpace=wrap;html=1;fixedSize=1;fontFamily=Times New Roman;fontSize=14;" vertex="1" parent="1">
          <mxGeometry x="320" y="320" width="200" height="60" as="geometry" />
        </mxCell>
        <mxCell id="G1d0ef21UjEmeTdIOgmG-1" value="Employees valid" style="rhombus;whiteSpace=wrap;html=1;fontFamily=Times New Roman;fontSize=14;" vertex="1" parent="1">
          <mxGeometry x="342.5" y="640" width="155" height="80" as="geometry" />
        </mxCell>
        <mxCell id="2H4twHa00Enzv_Izdguy-7" style="edgeStyle=orthogonalEdgeStyle;rounded=0;orthogonalLoop=1;jettySize=auto;html=1;" edge="1" parent="1" source="SvE11p_M-IJNmMJzqAdu-1" target="2H4twHa00Enzv_Izdguy-6">
          <mxGeometry relative="1" as="geometry">
            <Array as="points">
              <mxPoint x="125" y="940" />
              <mxPoint x="425" y="940" />
            </Array>
          </mxGeometry>
        </mxCell>
        <mxCell id="SvE11p_M-IJNmMJzqAdu-1" value="Employee detail" style="shape=note;whiteSpace=wrap;html=1;backgroundOutline=1;darkOpacity=0.05;direction=south;fontFamily=Times New Roman;fontSize=14;" vertex="1" parent="1">
          <mxGeometry x="30" y="800" width="190" height="80" as="geometry" />
        </mxCell>
        <mxCell id="SvE11p_M-IJNmMJzqAdu-2" style="edgeStyle=orthogonalEdgeStyle;rounded=0;orthogonalLoop=1;jettySize=auto;html=1;exitX=0;exitY=0.5;exitDx=0;exitDy=0;entryX=0.063;entryY=0.537;entryDx=0;entryDy=0;entryPerimeter=0;" edge="1" parent="1" source="G1d0ef21UjEmeTdIOgmG-1" target="SvE11p_M-IJNmMJzqAdu-1">
          <mxGeometry relative="1" as="geometry" />
        </mxCell>
        <mxCell id="2H4twHa00Enzv_Izdguy-1" value="True" style="text;html=1;align=center;verticalAlign=middle;whiteSpace=wrap;rounded=0;fontFamily=Times New Roman;fontSize=14;" vertex="1" parent="1">
          <mxGeometry x="210" y="650" width="60" height="30" as="geometry" />
        </mxCell>
        <mxCell id="2H4twHa00Enzv_Izdguy-2" value="Invaid employee" style="shape=note;whiteSpace=wrap;html=1;backgroundOutline=1;darkOpacity=0.05;direction=south;fontFamily=Times New Roman;fontSize=14;" vertex="1" parent="1">
          <mxGeometry x="630" y="800" width="190" height="80" as="geometry" />
        </mxCell>
        <mxCell id="2H4twHa00Enzv_Izdguy-3" style="edgeStyle=orthogonalEdgeStyle;rounded=0;orthogonalLoop=1;jettySize=auto;html=1;entryX=0;entryY=0.5;entryDx=0;entryDy=0;entryPerimeter=0;" edge="1" parent="1" source="G1d0ef21UjEmeTdIOgmG-1" target="2H4twHa00Enzv_Izdguy-2">
          <mxGeometry relative="1" as="geometry" />
        </mxCell>
        <mxCell id="2H4twHa00Enzv_Izdguy-4" value="False" style="text;html=1;align=center;verticalAlign=middle;whiteSpace=wrap;rounded=0;fontFamily=Times New Roman;fontSize=14;" vertex="1" parent="1">
          <mxGeometry x="560" y="650" width="60" height="30" as="geometry" />
        </mxCell>
        <mxCell id="2H4twHa00Enzv_Izdguy-13" style="edgeStyle=orthogonalEdgeStyle;rounded=0;orthogonalLoop=1;jettySize=auto;html=1;entryX=0.5;entryY=0;entryDx=0;entryDy=0;" edge="1" parent="1" source="2H4twHa00Enzv_Izdguy-6" target="2H4twHa00Enzv_Izdguy-8">
          <mxGeometry relative="1" as="geometry" />
        </mxCell>
        <mxCell id="2H4twHa00Enzv_Izdguy-6" value="Update" style="rounded=0;whiteSpace=wrap;html=1;fontFamily=Times New Roman;fontSize=14;" vertex="1" parent="1">
          <mxGeometry x="365" y="1050" width="120" height="60" as="geometry" />
        </mxCell>
        <mxCell id="2H4twHa00Enzv_Izdguy-8" value="Employees valid" style="rhombus;whiteSpace=wrap;html=1;fontFamily=Times New Roman;fontSize=14;" vertex="1" parent="1">
          <mxGeometry x="348" y="1440" width="155" height="80" as="geometry" />
        </mxCell>
        <mxCell id="CqsIutLyqt8uBsYfqVQC-2" style="edgeStyle=orthogonalEdgeStyle;rounded=0;orthogonalLoop=1;jettySize=auto;html=1;entryX=0;entryY=0.5;entryDx=0;entryDy=0;" edge="1" parent="1" source="2H4twHa00Enzv_Izdguy-9" target="CqsIutLyqt8uBsYfqVQC-1">
          <mxGeometry relative="1" as="geometry">
            <Array as="points">
              <mxPoint x="140" y="2030" />
            </Array>
          </mxGeometry>
        </mxCell>
        <mxCell id="2H4twHa00Enzv_Izdguy-9" value="Success" style="shape=note;whiteSpace=wrap;html=1;backgroundOutline=1;darkOpacity=0.05;direction=south;fontFamily=Times New Roman;fontSize=14;" vertex="1" parent="1">
          <mxGeometry x="50" y="1640" width="190" height="80" as="geometry" />
        </mxCell>
        <mxCell id="CqsIutLyqt8uBsYfqVQC-3" style="edgeStyle=orthogonalEdgeStyle;rounded=0;orthogonalLoop=1;jettySize=auto;html=1;entryX=1;entryY=0.5;entryDx=0;entryDy=0;" edge="1" parent="1" source="2H4twHa00Enzv_Izdguy-10" target="CqsIutLyqt8uBsYfqVQC-1">
          <mxGeometry relative="1" as="geometry">
            <Array as="points">
              <mxPoint x="680" y="2030" />
            </Array>
          </mxGeometry>
        </mxCell>
        <mxCell id="2H4twHa00Enzv_Izdguy-10" value="Error" style="shape=note;whiteSpace=wrap;html=1;backgroundOutline=1;darkOpacity=0.05;direction=south;fontFamily=Times New Roman;fontSize=14;" vertex="1" parent="1">
          <mxGeometry x="580" y="1640" width="190" height="80" as="geometry" />
        </mxCell>
        <mxCell id="2H4twHa00Enzv_Izdguy-11" style="edgeStyle=orthogonalEdgeStyle;rounded=0;orthogonalLoop=1;jettySize=auto;html=1;entryX=0;entryY=0.5;entryDx=0;entryDy=0;entryPerimeter=0;" edge="1" parent="1" source="2H4twHa00Enzv_Izdguy-8" target="2H4twHa00Enzv_Izdguy-9">
          <mxGeometry relative="1" as="geometry" />
        </mxCell>
        <mxCell id="2H4twHa00Enzv_Izdguy-12" style="edgeStyle=orthogonalEdgeStyle;rounded=0;orthogonalLoop=1;jettySize=auto;html=1;entryX=0;entryY=0.453;entryDx=0;entryDy=0;entryPerimeter=0;" edge="1" parent="1" source="2H4twHa00Enzv_Izdguy-8" target="2H4twHa00Enzv_Izdguy-10">
          <mxGeometry relative="1" as="geometry" />
        </mxCell>
        <mxCell id="2H4twHa00Enzv_Izdguy-14" value="True" style="text;html=1;align=center;verticalAlign=middle;whiteSpace=wrap;rounded=0;fontFamily=Times New Roman;fontSize=14;" vertex="1" parent="1">
          <mxGeometry x="240" y="1450" width="60" height="30" as="geometry" />
        </mxCell>
        <mxCell id="2H4twHa00Enzv_Izdguy-15" value="False" style="text;html=1;align=center;verticalAlign=middle;whiteSpace=wrap;rounded=0;fontFamily=Times New Roman;fontSize=14;" vertex="1" parent="1">
          <mxGeometry x="540" y="1450" width="60" height="30" as="geometry" />
        </mxCell>
        <mxCell id="Q4Ksr5MyFJq5nhHuG1Kz-3" style="edgeStyle=orthogonalEdgeStyle;rounded=0;orthogonalLoop=1;jettySize=auto;html=1;exitX=0;exitY=1;exitDx=0;exitDy=0;entryX=0;entryY=0.574;entryDx=0;entryDy=0;entryPerimeter=0;" edge="1" parent="1" source="CqsIutLyqt8uBsYfqVQC-1" target="Q4Ksr5MyFJq5nhHuG1Kz-1">
          <mxGeometry relative="1" as="geometry">
            <Array as="points">
              <mxPoint x="381" y="2160" />
              <mxPoint x="141" y="2160" />
            </Array>
          </mxGeometry>
        </mxCell>
        <mxCell id="Q4Ksr5MyFJq5nhHuG1Kz-4" style="edgeStyle=orthogonalEdgeStyle;rounded=0;orthogonalLoop=1;jettySize=auto;html=1;exitX=1;exitY=1;exitDx=0;exitDy=0;" edge="1" parent="1" source="CqsIutLyqt8uBsYfqVQC-1" target="Q4Ksr5MyFJq5nhHuG1Kz-2">
          <mxGeometry relative="1" as="geometry">
            <Array as="points">
              <mxPoint x="471" y="2160" />
              <mxPoint x="665" y="2160" />
            </Array>
          </mxGeometry>
        </mxCell>
        <mxCell id="CqsIutLyqt8uBsYfqVQC-1" value="Return" style="rhombus;whiteSpace=wrap;html=1;fontFamily=Times New Roman;fontSize=14;" vertex="1" parent="1">
          <mxGeometry x="335.5" y="1990" width="180" height="80" as="geometry" />
        </mxCell>
        <mxCell id="Q4Ksr5MyFJq5nhHuG1Kz-8" style="edgeStyle=orthogonalEdgeStyle;rounded=0;orthogonalLoop=1;jettySize=auto;html=1;entryX=0;entryY=0.5;entryDx=0;entryDy=0;" edge="1" parent="1" source="Q4Ksr5MyFJq5nhHuG1Kz-1" target="Q4Ksr5MyFJq5nhHuG1Kz-7">
          <mxGeometry relative="1" as="geometry">
            <Array as="points">
              <mxPoint x="140" y="2910" />
            </Array>
          </mxGeometry>
        </mxCell>
        <mxCell id="Q4Ksr5MyFJq5nhHuG1Kz-1" value="Return menu" style="shape=rectangle;whiteSpace=wrap;html=1;backgroundOutline=1;darkOpacity=0.05;direction=south;fontFamily=Times New Roman;fontSize=14;" vertex="1" parent="1">
          <mxGeometry x="60" y="2400" width="190" height="80" as="geometry" />
        </mxCell>
        <mxCell id="Q4Ksr5MyFJq5nhHuG1Kz-9" style="edgeStyle=orthogonalEdgeStyle;rounded=0;orthogonalLoop=1;jettySize=auto;html=1;entryX=1;entryY=0.5;entryDx=0;entryDy=0;" edge="1" parent="1" source="Q4Ksr5MyFJq5nhHuG1Kz-2" target="Q4Ksr5MyFJq5nhHuG1Kz-7">
          <mxGeometry relative="1" as="geometry">
            <Array as="points">
              <mxPoint x="665" y="2910" />
            </Array>
          </mxGeometry>
        </mxCell>
        <mxCell id="Q4Ksr5MyFJq5nhHuG1Kz-2" value="Keep" style="shape=rectangle;whiteSpace=wrap;html=1;backgroundOutline=1;darkOpacity=0.05;direction=south;fontFamily=Times New Roman;fontSize=14;" vertex="1" parent="1">
          <mxGeometry x="570" y="2400" width="190" height="80" as="geometry" />
        </mxCell>
        <mxCell id="Q4Ksr5MyFJq5nhHuG1Kz-5" value="True" style="text;html=1;align=center;verticalAlign=middle;whiteSpace=wrap;rounded=0;fontFamily=Times New Roman;fontSize=14;" vertex="1" parent="1">
          <mxGeometry x="250" y="2130" width="60" height="30" as="geometry" />
        </mxCell>
        <mxCell id="Q4Ksr5MyFJq5nhHuG1Kz-6" value="False" style="text;html=1;align=center;verticalAlign=middle;whiteSpace=wrap;rounded=0;fontFamily=Times New Roman;fontSize=14;" vertex="1" parent="1">
          <mxGeometry x="550" y="2130" width="60" height="30" as="geometry" />
        </mxCell>
        <mxCell id="Q4Ksr5MyFJq5nhHuG1Kz-7" value="End" style="ellipse;whiteSpace=wrap;html=1;fontFamily=Times New Roman;fontSize=14;" vertex="1" parent="1">
          <mxGeometry x="360" y="2870" width="120" height="80" as="geometry" />
        </mxCell>
      </root>
    </mxGraphModel>
  </diagram>
</mxfile>
